<svg xmlns="http://www.w3.org/2000/svg" width="600" height="165" viewBox="0 0 600 165" version="1.1"><path d="M 72.075 5.087 C 42.438 10.902, 17.478 33.659, 8.008 63.500 C 5.565 71.200, 4.201 90.517, 5.422 100.129 L 6.104 105.500 18.802 114.691 L 31.500 123.882 33.500 139.691 L 35.500 155.500 57.500 156.006 C 75.595 156.421, 80.160 156.821, 83.218 158.256 C 87.892 160.449, 90.113 160.448, 94.782 158.250 C 97.847 156.807, 102.362 156.412, 120.500 156 L 142.500 155.500 144.408 139.702 L 146.317 123.904 158.076 115.404 C 164.543 110.729, 170.415 106.204, 171.125 105.349 C 173.277 102.756, 173.550 80.840, 171.555 70.878 C 165.231 39.305, 140.386 13.555, 109 6.047 C 99.898 3.870, 80.809 3.374, 72.075 5.087 M 75.047 7.070 C 40.294 13.267, 13.018 41.268, 7.946 75.954 C 6.801 83.788, 7.093 99.548, 8.448 103.026 C 8.775 103.865, 14.620 108.586, 21.438 113.515 L 33.834 122.478 34.997 131.989 C 35.637 137.220, 36.462 143.975, 36.830 147 L 37.500 152.500 58.369 152.771 L 79.237 153.041 81.753 155.021 C 85.054 157.617, 91.494 157.606, 95.774 154.996 L 99.048 153 119.479 153 L 139.909 153 140.445 149.750 C 140.740 147.963, 141.444 142.675, 142.009 138 C 142.574 133.325, 143.278 127.903, 143.573 125.950 L 144.108 122.400 156.568 113.450 C 164.912 107.456, 169.264 103.674, 169.744 102 C 171.134 97.150, 170.437 75.768, 168.652 68.500 C 166.286 58.867, 159.126 44.538, 152.633 36.441 C 142.420 23.705, 126.994 13.561, 110.872 8.980 C 102.324 6.551, 83.565 5.551, 75.047 7.070 M 74 22.131 C 68.039 23.749, 65 25.194, 65 26.409 C 65 27.051, 68.377 44.427, 72.505 65.024 C 76.632 85.620, 79.883 102.852, 79.727 103.318 C 79.572 103.783, 75.236 89.389, 70.092 71.332 C 64.948 53.274, 60.110 36.378, 59.341 33.784 L 57.943 29.069 55.221 30.241 C 50.744 32.170, 44.071 36.962, 42.478 39.393 L 40.987 41.668 54.112 69.584 C 69.552 102.427, 73.021 110, 72.621 110 C 72.458 110, 64.264 96.075, 54.413 79.054 L 36.500 48.109 33.316 51.186 C 31.566 52.879, 29.151 56.545, 27.952 59.333 C 26.145 63.533, 25.982 64.742, 27.003 66.376 C 27.681 67.462, 37.005 79.183, 47.723 92.425 L 67.212 116.500 45.750 95.153 C 28.001 77.499, 24.165 74.125, 23.575 75.653 C 21.989 79.759, 21.079 87.297, 21.659 91.527 L 22.274 96.012 34.930 105.335 L 47.586 114.657 49.043 126.579 L 50.500 138.500 65.876 138.777 L 81.252 139.053 83.761 141.027 C 86.950 143.535, 90.439 143.535, 93.962 141.027 L 96.734 139.054 112.117 138.777 L 127.500 138.500 128.897 126.468 L 130.294 114.436 141.381 106.468 C 156.516 95.592, 156 96.230, 156 88.366 C 156 84.717, 155.470 79.964, 154.823 77.802 L 153.645 73.872 132.173 95.186 L 110.701 116.500 123.177 101 C 130.039 92.475, 139.392 80.887, 143.962 75.249 L 152.271 64.997 150.576 60.561 C 149.645 58.121, 147.221 54.259, 145.191 51.979 L 141.500 47.833 123.532 78.865 C 113.650 95.933, 105.444 109.777, 105.296 109.629 C 105.149 109.482, 111.810 94.993, 120.100 77.431 C 128.390 59.869, 135.571 44.490, 136.059 43.256 C 136.791 41.405, 136.332 40.399, 133.439 37.506 C 131.511 35.578, 127.691 32.864, 124.951 31.475 L 119.969 28.951 119.150 31.225 C 118.699 32.476, 113.880 49.173, 108.441 68.328 C 103.002 87.484, 98.426 102.777, 98.271 102.314 C 98.117 101.851, 101.368 84.620, 105.495 64.024 C 109.623 43.427, 113 26.234, 113 25.817 C 113 24.525, 99.370 20.842, 95.840 21.180 L 92.500 21.500 91.212 57 C 90.504 76.525, 89.586 94.300, 89.173 96.500 C 88.704 98.994, 87.944 86.566, 87.153 63.500 C 86.455 43.150, 85.650 25.262, 85.363 23.750 L 84.841 21 81.171 21.090 C 79.152 21.140, 75.925 21.608, 74 22.131" stroke="none" fill="#fbca04" fill-rule="evenodd"/><path d="M 284 26 L 284 47 289 47 L 294 47 294 39.071 C 294 33.197, 294.407 30.736, 295.571 29.571 C 299.650 25.493, 302 29.329, 302 40.065 L 302 47 306.500 47 L 311 47 311 36.089 L 311 25.178 307.923 22.589 C 304.389 19.615, 299.598 19.193, 296.223 21.557 L 294 23.113 294 14.057 L 294 5 289 5 L 284 5 284 26 M 75.047 7.070 C 40.294 13.267, 13.018 41.268, 7.946 75.954 C 6.801 83.788, 7.093 99.548, 8.448 103.026 C 8.775 103.865, 14.620 108.586, 21.438 113.515 L 33.834 122.478 34.997 131.989 C 35.637 137.220, 36.462 143.975, 36.830 147 L 37.500 152.500 58.369 152.771 L 79.237 153.041 81.753 155.021 C 85.054 157.617, 91.494 157.606, 95.774 154.996 L 99.048 153 119.479 153 L 139.909 153 140.445 149.750 C 140.740 147.963, 141.444 142.675, 142.009 138 C 142.574 133.325, 143.278 127.903, 143.573 125.950 L 144.108 122.400 156.568 113.450 C 164.912 107.456, 169.264 103.674, 169.744 102 C 171.134 97.150, 170.437 75.768, 168.652 68.500 C 166.286 58.867, 159.126 44.538, 152.633 36.441 C 142.420 23.705, 126.994 13.561, 110.872 8.980 C 102.324 6.551, 83.565 5.551, 75.047 7.070 M 345 26.500 L 345 47 350 47 L 355 47 355 26.500 L 355 6 350 6 L 345 6 345 26.500 M 359 26.500 L 359 47 364 47 L 369 47 369 26.500 L 369 6 364 6 L 359 6 359 26.500 M 556.199 8.588 C 545.950 13.696, 540.310 23.812, 541.241 35.417 C 541.845 42.940, 544.535 48.444, 550.038 53.415 C 555.896 58.708, 560.265 60.348, 568.500 60.348 C 576.735 60.348, 581.104 58.708, 586.962 53.415 C 592.465 48.444, 595.155 42.940, 595.759 35.417 C 596.690 23.812, 591.050 13.696, 580.801 8.588 C 573.472 4.936, 563.528 4.936, 556.199 8.588 M 261.198 9.614 C 257.020 11.747, 255 15.630, 255 21.526 C 255 27.107, 257.359 29.658, 264.653 31.966 C 268.307 33.123, 269.578 34.045, 269.815 35.715 C 270.046 37.343, 269.506 38.086, 267.776 38.520 C 265.230 39.159, 260.598 37.777, 259.538 36.062 C 258.333 34.112, 257.058 34.965, 254.921 39.155 L 252.802 43.309 254.651 44.405 C 260.813 48.055, 267.922 48.907, 273.282 46.638 C 278.295 44.516, 280.285 41.603, 280.778 35.667 C 281.152 31.149, 280.868 29.972, 278.859 27.713 C 277.561 26.255, 274.254 24.248, 271.508 23.253 C 266.164 21.316, 264.488 18.615, 267.950 17.516 C 269.086 17.155, 271.302 17.503, 272.877 18.289 L 275.739 19.717 277.795 15.485 L 279.851 11.253 277.388 10.131 C 272.791 8.036, 264.787 7.781, 261.198 9.614 M 564.632 21.500 C 563.678 24.525, 562.568 27, 562.165 27 C 561.761 27, 560.615 25.619, 559.618 23.931 C 557.120 19.701, 556.693 20.744, 558.615 26.385 C 560.477 31.847, 560.031 32.791, 556.375 31.125 C 552.223 29.233, 552.501 30.516, 556.919 33.643 C 559.140 35.214, 560.967 36.793, 560.979 37.151 C 560.990 37.509, 559.313 38.250, 557.250 38.797 L 553.500 39.793 557 39.910 C 558.925 39.975, 561.498 40.295, 562.718 40.622 L 564.937 41.217 562.218 44.845 L 559.500 48.474 564.750 44.739 L 570 41.003 570.079 45.752 L 570.158 50.500 572.162 44.750 C 573.265 41.587, 574.477 39, 574.856 39 C 575.235 39, 576.395 40.578, 577.433 42.506 C 578.472 44.434, 579.453 45.880, 579.614 45.720 C 579.775 45.559, 579.209 43.049, 578.357 40.143 C 577.505 37.236, 577.007 34.659, 577.251 34.416 C 577.494 34.173, 579.337 34.661, 581.346 35.500 C 583.356 36.340, 585 36.824, 585 36.576 C 585 36.327, 582.975 34.670, 580.500 32.893 C 578.025 31.115, 576 29.336, 576 28.939 C 576 28.541, 578.138 27.771, 580.750 27.226 L 585.500 26.236 578.750 26.118 C 575.038 26.053, 572 25.628, 572 25.174 C 572 24.720, 573.123 23.293, 574.496 22.004 C 578.262 18.466, 576.715 18.412, 571.640 21.904 C 569.165 23.607, 566.939 25, 566.693 25 C 566.447 25, 566.474 22.975, 566.753 20.500 C 567.032 18.025, 567.059 16, 566.813 16 C 566.567 16, 565.585 18.475, 564.632 21.500 M 320.984 21.835 C 311.531 26.813, 311.786 41.298, 321.409 45.956 C 326.145 48.249, 328.811 48.458, 334.205 46.960 C 337.906 45.932, 342 41.943, 342 39.365 C 342 37.740, 333.481 37.412, 332.500 39 C 331.065 41.322, 324 39.493, 324 36.800 C 324 36.360, 328.325 36, 333.611 36 L 343.223 36 342.559 32.250 C 340.789 22.238, 330.057 17.057, 320.984 21.835 M 74 22.131 C 68.039 23.749, 65 25.194, 65 26.409 C 65 27.051, 68.377 44.427, 72.505 65.024 C 76.632 85.620, 79.883 102.852, 79.727 103.318 C 79.572 103.783, 75.236 89.389, 70.092 71.332 C 64.948 53.274, 60.110 36.378, 59.341 33.784 L 57.943 29.069 55.221 30.241 C 50.744 32.170, 44.071 36.962, 42.478 39.393 L 40.987 41.668 54.112 69.584 C 69.552 102.427, 73.021 110, 72.621 110 C 72.458 110, 64.264 96.075, 54.413 79.054 L 36.500 48.109 33.316 51.186 C 31.566 52.879, 29.151 56.545, 27.952 59.333 C 26.145 63.533, 25.982 64.742, 27.003 66.376 C 27.681 67.462, 37.005 79.183, 47.723 92.425 L 67.212 116.500 45.750 95.153 C 28.001 77.499, 24.165 74.125, 23.575 75.653 C 21.989 79.759, 21.079 87.297, 21.659 91.527 L 22.274 96.012 34.930 105.335 L 47.586 114.657 49.043 126.579 L 50.500 138.500 65.876 138.777 L 81.252 139.053 83.761 141.027 C 86.950 143.535, 90.439 143.535, 93.962 141.027 L 96.734 139.054 112.117 138.777 L 127.500 138.500 128.897 126.468 L 130.294 114.436 141.381 106.468 C 156.516 95.592, 156 96.230, 156 88.366 C 156 84.717, 155.470 79.964, 154.823 77.802 L 153.645 73.872 132.173 95.186 L 110.701 116.500 123.177 101 C 130.039 92.475, 139.392 80.887, 143.962 75.249 L 152.271 64.997 150.576 60.561 C 149.645 58.121, 147.221 54.259, 145.191 51.979 L 141.500 47.833 123.532 78.865 C 113.650 95.933, 105.444 109.777, 105.296 109.629 C 105.149 109.482, 111.810 94.993, 120.100 77.431 C 128.390 59.869, 135.571 44.490, 136.059 43.256 C 136.791 41.405, 136.332 40.399, 133.439 37.506 C 131.511 35.578, 127.691 32.864, 124.951 31.475 L 119.969 28.951 119.150 31.225 C 118.699 32.476, 113.880 49.173, 108.441 68.328 C 103.002 87.484, 98.426 102.777, 98.271 102.314 C 98.117 101.851, 101.368 84.620, 105.495 64.024 C 109.623 43.427, 113 26.234, 113 25.817 C 113 24.525, 99.370 20.842, 95.840 21.180 L 92.500 21.500 91.212 57 C 90.504 76.525, 89.586 94.300, 89.173 96.500 C 88.704 98.994, 87.944 86.566, 87.153 63.500 C 86.455 43.150, 85.650 25.262, 85.363 23.750 L 84.841 21 81.171 21.090 C 79.152 21.140, 75.925 21.608, 74 22.131 M 325 28.500 C 323.923 29.797, 324.396 30, 328.500 30 C 332.604 30, 333.077 29.797, 332 28.500 C 331.315 27.675, 329.740 27, 328.500 27 C 327.260 27, 325.685 27.675, 325 28.500 M 254 60.335 C 254 61.116, 258.903 73.397, 264.896 87.627 L 275.791 113.500 281.646 113.790 L 287.500 114.080 298.750 87.786 C 304.938 73.324, 310 60.912, 310 60.204 C 310 59.240, 308.068 58.989, 302.313 59.208 L 294.627 59.500 289.834 71.500 C 287.198 78.100, 284.311 85.074, 283.419 86.997 L 281.796 90.495 275.598 74.997 L 269.399 59.500 261.699 59.208 C 255.579 58.976, 254 59.207, 254 60.335 M 336 86.362 L 336 114 343.500 114 L 351 114 351 105 L 351 96 357.788 96 C 370.968 96, 377 90.349, 377 78 C 377 69.732, 374.791 65.334, 369.014 62.100 L 364.727 59.699 350.363 59.212 L 336 58.724 336 86.362 M 351 78 L 351 84 354.277 84 C 358.837 84, 362 81.548, 362 78.015 C 362 74.040, 359.602 72, 354.929 72 L 351 72 351 78 M 396 75.907 C 375.087 80.299, 372.892 107.163, 392.899 113.862 C 404.237 117.658, 417.886 112.867, 422.087 103.616 C 426.493 93.913, 422.586 82.907, 413 78.022 C 408.808 75.885, 400.831 74.893, 396 75.907 M 511.184 76.134 C 501.301 77.929, 495.614 85.003, 495.639 95.470 C 495.661 104.440, 499.347 110.158, 507.232 113.452 C 511.823 115.371, 521.984 115.462, 526.282 113.623 C 530.032 112.019, 534.482 107.472, 535.455 104.250 L 536.135 102 529.496 102 C 524.928 102, 522.389 102.468, 521.357 103.500 C 518.865 105.992, 513.456 105.395, 511.073 102.365 C 509.933 100.916, 509 99.341, 509 98.865 C 509 98.389, 515.328 98, 523.061 98 L 537.123 98 536.443 93.250 C 534.609 80.435, 524.652 73.688, 511.184 76.134 M 561.021 77.116 C 559.657 77.660, 557.744 78.826, 556.771 79.708 L 555 81.310 555 79.155 L 555 77 548 77 L 541 77 541 95.500 L 541 114 548 114 L 555 114 555 104.547 C 555 99.348, 555.525 93.941, 556.167 92.532 C 557.526 89.551, 562.185 87.962, 566.250 89.094 L 569 89.860 569 82.930 L 569 76 566.250 76.063 C 564.737 76.098, 562.384 76.572, 561.021 77.116 M 423.062 77.750 C 423.096 78.162, 427.292 86.375, 432.387 96 L 441.649 113.500 446.336 113.805 L 451.023 114.111 455.392 104.805 L 459.762 95.500 464.039 104.750 L 468.315 114 472.936 114 L 477.557 114 482.924 103.750 C 485.876 98.112, 490.287 89.787, 492.726 85.250 L 497.162 77 489.239 77 L 481.315 77 477.053 86.250 L 472.791 95.500 468.456 86.250 L 464.121 77 459.703 77 L 455.285 77 451.018 86.250 L 446.752 95.500 442.436 86.250 L 438.121 77 430.560 77 C 426.402 77, 423.028 77.338, 423.062 77.750 M 308 91 L 308 97 318.500 97 L 329 97 329 91 L 329 85 318.500 85 L 308 85 308 91 M 511.655 86.829 C 510.745 87.835, 510 88.960, 510 89.329 C 510 89.698, 512.925 90, 516.500 90 C 523.322 90, 524.185 89.382, 521.171 86.655 C 518.744 84.458, 513.717 84.550, 511.655 86.829 M 396 90 C 393.250 92.750, 393.346 98.313, 396.189 100.961 C 400.892 105.343, 409 101.841, 409 95.427 C 409 90.905, 406.066 88, 401.500 88 C 399.333 88, 397.238 88.762, 396 90 M 340 126 C 338.504 128.795, 340.374 132, 343.500 132 C 346.626 132, 348.496 128.795, 347 126 C 346.381 124.842, 344.906 124, 343.500 124 C 342.094 124, 340.619 124.842, 340 126 M 276 140.060 L 276 154.121 279.750 153.810 L 283.500 153.500 284 149.500 L 284.500 145.500 286.934 149.750 L 289.368 154 294.184 154 C 296.833 154, 299 153.748, 299 153.440 C 299 153.132, 297.243 150.576, 295.095 147.760 L 291.190 142.638 293.595 140.747 C 295.477 139.266, 296 137.908, 296 134.500 C 296 128.026, 292.989 126, 283.365 126 L 276 126 276 140.060 M 408 129.500 L 408 133 410.465 133 L 412.930 133 413.215 143.250 L 413.500 153.500 417.250 153.810 L 421 154.121 421 143.560 L 421 133 424 133 L 427 133 427 129.500 L 427 126 417.500 126 L 408 126 408 129.500 M 284 135.073 C 284 137.454, 284.392 138.071, 285.739 137.812 C 287.906 137.394, 288.663 134.035, 286.848 132.885 C 284.570 131.441, 284 131.879, 284 135.073 M 300.844 137.002 C 297.038 140.808, 296.910 146.551, 300.536 150.860 L 303.071 153.874 311.536 153.850 L 320 153.826 320 143.992 L 320 134.158 311.844 134.158 L 303.688 134.158 300.844 137.002 M 324.981 136.865 C 322.630 139.216, 322 140.724, 322 144 C 322 147.276, 322.630 148.784, 324.981 151.135 C 327.511 153.665, 328.609 154.070, 332.231 153.808 L 336.500 153.500 336.812 150.263 L 337.125 147.025 334.155 147.619 C 331.822 148.086, 330.951 147.776, 330.096 146.179 C 328.103 142.456, 331.366 139.052, 335.433 140.612 C 336.876 141.167, 337.096 140.736, 336.823 137.885 L 336.500 134.500 332.231 134.192 C 328.609 133.930, 327.511 134.335, 324.981 136.865 M 340 144 L 340 154 343.500 154 L 347 154 347 144 L 347 134 343.500 134 L 340 134 340 144 M 350 144.148 L 350 154.121 353.750 153.810 L 357.500 153.500 358 147 L 358.500 140.500 360.500 140.500 L 362.500 140.500 362.796 147.250 L 363.091 154 366.546 154 L 370 154 370 145.655 C 370 134.824, 369.377 134.216, 358.250 134.193 L 350 134.175 350 144.148 M 376.248 135.539 C 371.179 139.089, 370.925 148.217, 375.787 152.054 C 377.902 153.723, 379.437 154.090, 382.750 153.720 C 387.173 153.226, 388.304 154.232, 385.196 155.895 C 384.094 156.485, 382.830 156.505, 381.946 155.946 C 381.151 155.442, 378.813 155.024, 376.750 155.015 C 372.275 154.997, 371.882 156.601, 375.525 160.023 C 377.536 161.913, 379.180 162.406, 383.610 162.448 L 389.170 162.500 391.585 159.694 L 394 156.888 394 145.523 L 394 134.158 386.110 134.158 C 381.016 134.158, 377.521 134.647, 376.248 135.539 M 428.195 136.489 C 424.784 139.360, 423.838 142.830, 425.161 147.623 C 426.276 151.660, 430.186 154, 435.815 154 C 439.989 154, 445 150.960, 445 148.427 C 445 146.654, 439.778 146.497, 437.068 148.190 C 435.555 149.134, 434.802 149.083, 433.417 147.940 L 431.671 146.500 438.585 146 L 445.500 145.500 445.248 143 C 444.400 134.602, 434.796 130.935, 428.195 136.489 M 450.983 136.668 C 448.439 138.808, 448 139.881, 448 143.953 C 448 147.748, 448.527 149.255, 450.573 151.300 L 453.146 153.873 461.573 153.850 L 470 153.826 470 143.992 L 470 134.158 461.983 134.158 L 453.966 134.158 450.983 136.668 M 473 144 L 473 154 476.454 154 L 479.909 154 480.204 147.250 L 480.500 140.500 482.500 140.500 L 484.500 140.500 484.796 147.250 L 485.091 154 488.429 154 L 491.767 154 492.178 147.538 C 492.626 140.512, 493.112 139.445, 495.457 140.345 C 496.632 140.796, 497 142.510, 497 147.529 L 497 154.121 500.750 153.810 L 504.500 153.500 504.815 148.503 C 505.215 142.152, 504.342 137.485, 502.389 135.532 C 500.444 133.587, 496.069 133.563, 493.330 135.482 L 491.214 136.963 489.985 135.482 C 488.507 133.702, 482.879 133.521, 481.200 135.200 C 480.267 136.133, 480 136.133, 480 135.200 C 480 134.495, 478.556 134, 476.500 134 L 473 134 473 144 M 433 140 C 431.865 140.734, 432.305 140.973, 434.809 140.985 C 436.764 140.994, 437.865 140.591, 437.500 140 C 436.724 138.744, 434.944 138.744, 433 140 M 381.724 141.134 C 377.838 143.309, 381.294 148.983, 385.224 146.880 C 386.201 146.357, 387 145.061, 387 144 C 387 141.485, 384.005 139.858, 381.724 141.134 M 305.638 142.500 C 304.438 145.629, 307.325 148.580, 310.423 147.391 C 314.176 145.951, 313.074 141, 309 141 C 307.446 141, 305.959 141.663, 305.638 142.500 M 455.659 142.446 C 454.413 145.692, 457.308 148.587, 460.554 147.341 C 461.539 146.963, 461.997 145.783, 461.804 144.122 C 461.574 142.134, 460.866 141.426, 458.878 141.196 C 457.217 141.003, 456.037 141.461, 455.659 142.446" stroke="none" fill="#ec1e24" fill-rule="evenodd"/></svg>